Coordinates
version=1
nRows=14
nColumns=36
inDegrees=yes

Units are S.I. units (second, meters, Newtons, ...)
If the header above contains a line with 'inDegrees', this indicates whether rotational values are in degrees (yes) or radians (no).

endheader
time	pelvis_tilt	pelvis_list	pelvis_rotation	pelvis_tx	pelvis_ty	pelvis_tz	hip_flexion_r	hip_adduction_r	hip_rotation_r	knee_angle_r	knee_angle_r_beta	ankle_angle_r	subtalar_angle_r	mtp_angle_r	hip_flexion_l	hip_adduction_l	hip_rotation_l	knee_angle_l	knee_angle_l_beta	ankle_angle_l	subtalar_angle_l	mtp_angle_l	lumbar_extension	lumbar_bending	lumbar_rotation	arm_flex_r	arm_add_r	arm_rot_r	elbow_flex_r	pro_sup_r	arm_flex_l	arm_add_l	arm_rot_l	elbow_flex_l	pro_sup_l
     10.37000000	     -8.27400220	     -0.66011374	     -1.77114723	     -0.50495016	      0.58076535	     -0.62277225	     87.94516544	     -2.25888983	      6.63529111	     91.37406383	      1.59477826	     15.99065670	     -9.96503487	     -7.49999987	     88.65955100	     -9.52990614	      2.07173052	     93.70683858	      1.63549286	     16.66962526	     -3.65863672	     -7.49999987	    -42.19042771	      0.60137857	     -1.68236079	     54.50984971	    -13.10666837	      9.64256182	    123.56519125	    100.69071965	     47.12635470	    -15.05474447	      6.01124864	    119.43238720	     98.73385584
     10.38000000	     -7.22319939	     -0.71382070	     -1.76880594	     -0.50890370	      0.57740407	     -0.62285781	     87.63857319	     -2.20337515	      6.71327657	     91.84594686	      1.60301418	     15.88278217	     -9.95129329	     -7.49999987	     88.36611977	     -9.55348045	      2.20491856	     94.16612517	      1.64350893	     16.51195366	     -3.65316596	     -7.49999987	    -41.96730257	      0.63268839	     -1.54861449	     53.65926746	    -13.32419084	      9.79181197	    123.77215337	    100.69265042	     45.81316582	    -14.93323529	      5.91197186	    119.80300605	     98.75909145
     10.39000000	     -6.13196749	     -1.00950405	     -1.70611126	     -0.51288204	      0.57437456	     -0.62318706	     87.20105744	     -2.27396283	      6.40794029	     92.27173390	      1.61044556	     15.71867909	     -9.89330633	     -7.49999987	     88.14380261	     -9.61806045	      2.49088167	     94.68997612	      1.65265185	     16.09179110	     -3.57438280	     -7.49999987	    -41.96012136	      1.07525072	     -1.75548477	     53.23067828	    -13.29942289	     10.66178255	    123.96051128	    100.41978964	     44.03994592	    -14.73984676	      4.27357210	    121.31154660	     98.62658890
     10.40000000	     -4.95357926	     -1.06029245	     -1.50863587	     -0.51684435	      0.57203264	     -0.62375087	     86.66337963	     -2.55016691	      6.36752042	     92.69363146	      1.61780906	     15.57024371	     -9.80240070	     -7.49999987	     87.60388602	     -9.42447185	      2.56828584	     95.01441544	      1.65831439	     15.90246710	     -3.50828158	     -7.49999987	    -41.98124149	      1.21309604	     -1.75592839	     52.31723435	    -13.62700996	     10.72266101	    124.38434969	    100.38565625	     42.74335080	    -14.35265254	      3.88348619	    121.89302191	     98.62157099
     10.41000000	     -3.79524160	     -1.14881969	     -1.35255216	     -0.52052075	      0.57048151	     -0.62431681	     86.00614596	     -2.80944627	      6.26909512	     92.97186794	      1.62266521	     15.45652589	     -9.60169531	     -7.49999987	     86.97030487	     -9.29986564	      2.66048300	     95.24664896	      1.66236763	     15.73413661	     -3.42384276	     -7.49999987	    -42.02772113	      1.39960480	     -1.72658658	     51.26168334	    -13.84836202	     10.76157351	    124.84603404	    100.34938715	     41.23957499	    -13.90842731	      3.27369808	    122.55918633	     98.59229246
     10.42000000	     -2.83663806	     -1.18035545	     -1.29114677	     -0.52389889	      0.56978020	     -0.62454793	     85.38901592	     -2.92054060	      6.25732073	     93.04483134	      1.62393866	     15.33542086	     -9.52429369	     -7.49999987	     86.35995758	     -9.30517490	      2.65867115	     95.31193715	      1.66350712	     15.62809935	     -3.37778054	     -7.49999987	    -41.83127913	      1.45459436	     -1.61914185	     49.91161434	    -14.05050400	     10.88736739	    125.00318070	    100.36074980	     39.59623595	    -13.66632207	      3.26168731	    122.80845484	     98.61089980
     10.43000000	     -1.63531643	     -1.18984236	     -1.04139427	     -0.52716693	      0.57096594	     -0.62539913	     84.30450917	     -3.40108730	      6.10279769	     92.96092794	      1.62247427	     15.02700922	     -9.17311509	     -7.49999987	     85.27451747	     -9.12096114	      2.52515441	     95.16935214	      1.66101854	     15.43786775	     -3.21540917	     -7.49999987	    -42.22408556	      1.64621905	     -1.66608910	     48.46870057	    -14.23175372	     10.57199482	    125.71143180	    100.37618457	     37.89142571	    -12.85541490	      2.09963165	    123.70490264	     98.61398121
     10.44000000	     -0.46423683	     -1.08236357	     -0.60873839	     -0.53052551	      0.57326175	     -0.62691804	     83.08121429	     -4.18743073	      6.00981812	     92.65864407	      1.61719842	     14.76595656	     -8.82435445	     -7.49999987	     83.99157638	     -8.62111169	      2.27533390	     94.73276373	      1.65339864	     15.28833528	     -3.16646870	     -7.49999987	    -42.59431314	      1.90908697	     -1.99546167	     46.95008264	    -14.23741213	     10.36583352	    126.04731206	    100.37837063	     36.03828725	    -12.28260085	      1.28291372	    124.25784400	     98.60380030
     10.45000000	      0.69659171	     -1.01201744	     -0.22342273	     -0.53378910	      0.57594991	     -0.62840687	     81.78348311	     -4.93555738	      5.86458201	     92.26584273	      1.61034274	     14.56931284	     -8.42952388	     -7.49999987	     82.66380985	     -8.20770706	      2.05686275	     94.24974057	      1.64496829	     15.12933043	     -3.23489716	     -7.49999987	    -42.92255166	      2.18914555	     -2.29200265	     45.30149824	    -14.12929420	     10.03258438	    126.32288182	    100.38238973	     34.06852460	    -11.58559276	      0.23850176	    124.87700767	     98.56010595
     10.46000000	      1.69778233	     -1.05751493	     -0.06872661	     -0.53681534	      0.57855431	     -0.62908915	     80.58890039	     -5.31871014	      5.57988993	     91.82951519	      1.60272739	     14.49635395	     -8.09675740	     -7.49999987	     81.51108160	     -8.13669814	      1.94356999	     93.81065855	      1.63730487	     14.95103692	     -3.30402403	     -7.49999987	    -43.03022080	      2.35926168	     -2.35756137	     43.41423162	    -14.00545259	      9.69131589	    126.49435933	    100.38710929	     31.97080006	    -10.81377934	     -0.82258201	    125.42819496	     98.50118190
     10.47000000	      2.67418390	     -1.06662017	     -0.05080770	     -0.53969847	      0.58109349	     -0.62925621	     79.43526221	     -5.52269941	      5.36237821	     91.41606067	      1.59551125	     14.50465369	     -7.78449341	     -7.49999987	     80.36023528	     -8.25917905	      1.77368740	     93.38607039	      1.62989440	     14.71885894	     -3.31108278	     -7.49999987	    -43.05398690	      2.41299825	     -2.36210943	     41.46891014	    -13.79375573	      9.40236192	    126.55180004	    100.38534015	     29.75857910	    -10.11791873	     -1.70755542	    125.80448703	     98.46343473
     10.48000000	      3.69112371	     -0.97070901	     -0.08357687	     -0.54244100	      0.58348679	     -0.62933839	     78.29910945	     -5.67481175	      5.32115218	     91.08191823	      1.58967936	     14.48257830	     -7.48337184	     -7.49999987	     79.14324254	     -8.44064615	      1.42516120	     92.99248191	      1.62302499	     14.47738941	     -3.24735612	     -7.49999987	    -43.04520744	      2.33597674	     -2.35035410	     39.43287022	    -13.64790842	      9.11297761	    126.53015214	    100.36635842	     27.57824833	     -9.52721795	     -2.38326129	    126.05589946	     98.46827723
     10.49000000	      4.51106528	     -0.93056914	     -0.12040667	     -0.54500636	      0.58505318	     -0.62945811	     77.42663519	     -5.76460945	      5.26064793	     90.81937540	      1.58509713	     14.38931388	     -7.38162435	     -7.49999987	     78.24443756	     -8.59698760	      1.19456779	     92.71455409	      1.61817423	     14.34152151	     -3.18726973	     -7.49999987	    -42.70602382	      2.30142722	     -2.24092291	     37.38008476	    -13.76183456	      9.22330358	    126.48351320	    100.36471740	     25.35348089	     -9.16541929	     -2.44590334	    126.12024845	     98.47917552
     10.50000000	      5.59574111	     -0.69278555	     -0.26317900	     -0.54776844	      0.58665944	     -0.62944046	     76.38748904	     -5.86817997	      5.38312490	     90.61539887	      1.58153706	     14.33625213	     -7.13883241	     -7.49999987	     76.99440795	     -8.80276402	      0.71437405	     92.43895445	      1.61336411	     14.04368567	     -3.08851998	     -7.49999987	    -42.66496684	      1.98414273	     -2.12137416	     35.27402328	    -13.66789337	      8.38399100	    126.37914626	    100.26985912	     23.45343017	     -8.28556980	     -3.66102794	    126.34230246	     98.43091740
